HIERARCHY
ROOT Hips
{
    OFFSET 0.000000 0.000000 0.000000
    CHANNELS 6 Xposition Yposition Zposition Zrotation Xrotation Yrotation
    JOINT Spine
    {
        OFFSET -0.000000 7.246840 0.000000
        CHANNELS 3 Zrotation Xrotation Yrotation
        JOINT Spine1
        {
            OFFSET -0.000000 20.289354 0.000000
            CHANNELS 3 Zrotation Xrotation Yrotation
            JOINT Neck
            {
                OFFSET -0.000000 20.206032 1.836912
                CHANNELS 3 Zrotation Xrotation Yrotation
                JOINT Head
                {
                    OFFSET -0.000000 12.372654 -1.767522
                    CHANNELS 3 Zrotation Xrotation Yrotation
                    End Site
                    {
                        OFFSET -0.000000 22.094025 0.000000
                    }
                }
            }
            JOINT LeftShoulder
            {
                OFFSET 3.465871 17.201674 -0.568930
                CHANNELS 3 Zrotation Xrotation Yrotation
                JOINT LeftArm
                {
                    OFFSET 14.070313 0.000000 0.000000
                    CHANNELS 3 Zrotation Xrotation Yrotation
                    JOINT LeftForeArm
                    {
                        OFFSET 26.549477 0.000000 0.000000
                        CHANNELS 3 Zrotation Xrotation Yrotation
                        JOINT LeftHand
                        {
                            OFFSET 18.880413 0.000000 0.000000
                            CHANNELS 3 Zrotation Xrotation Yrotation
                            End Site
                            {
                                OFFSET 13.256415 0.000000 0.000000
                            }
                        }
                    }
                }
            }
            JOINT RightShoulder
            {
                OFFSET -3.526370 17.201674 -0.568930
                CHANNELS 3 Zrotation Xrotation Yrotation
                JOINT RightArm
                {
                    OFFSET -14.070313 0.000000 0.000000
                    CHANNELS 3 Zrotation Xrotation Yrotation
                    JOINT RightForeArm
                    {
                        OFFSET -26.549477 0.000000 0.000000
                        CHANNELS 3 Zrotation Xrotation Yrotation
                        JOINT RightHand
                        {
                            OFFSET -18.880413 0.000000 0.000000
                            CHANNELS 3 Zrotation Xrotation Yrotation
                            End Site
                            {
                                OFFSET -13.256415 0.000000 0.000000
                            }
                        }
                    }
                }
            }
        }
    }
    JOINT LeftUpLeg
    {
        OFFSET 8.837609 0.000000 0.000000
        CHANNELS 3 Zrotation Xrotation Yrotation
        JOINT LeftLeg
        {
            OFFSET -0.000000 -41.345005 0.000000
            CHANNELS 3 Zrotation Xrotation Yrotation
            JOINT LeftFoot
            {
                OFFSET -0.000000 -35.500874 0.000000
                CHANNELS 3 Zrotation Xrotation Yrotation
                JOINT LeftToeBase
                {
                    OFFSET -0.000000 -5.744446 13.256415
                    CHANNELS 3 Zrotation Xrotation Yrotation
                    End Site
                    {
                        OFFSET -0.000000 0.000000 3.535044
                    }
                }
            }
        }
    }
    JOINT RightUpLeg
    {
        OFFSET -8.837609 0.000000 0.000000
        CHANNELS 3 Zrotation Xrotation Yrotation
        JOINT RightLeg
        {
            OFFSET -0.000000 -41.345005 0.000000
            CHANNELS 3 Zrotation Xrotation Yrotation
            JOINT RightFoot
            {
                OFFSET -0.000000 -35.500874 0.000000
                CHANNELS 3 Zrotation Xrotation Yrotation
                JOINT RightToeBase
                {
                    OFFSET -0.000000 -5.744446 13.256415
                    CHANNELS 3 Zrotation Xrotation Yrotation
                    End Site
                    {
                        OFFSET -0.000000 0.000000 3.535044
                    }
                }
            }
        }
    }
}
MOTION
Frames:    14
Frame Time:    0.010000
7.357191    82.706093    -5.591132    3.558952    2.136944    -0.774237    -2.028697    -13.442164    0.091037    -1.885120    -0.343369    0.324593    0.470181    35.167248    -1.498288    2.959144    -9.462078    -0.809694    20.919542    3.185851    6.869505    -28.008801    1.610460    -10.536812    8.458446    -5.719448    0.222513    -26.674164    -3.411750    -9.809840    -17.932842    0.076008    11.650067    11.453169    2.871027    10.651910    -0.115315    0.489464    -7.873286    5.286271    1.456083    20.878813    -1.981186    7.903111    -3.160560    -2.582731    -9.246083    -8.015291    5.559829    0.411121    -2.156540    -0.015158    -2.058542    0.021489    -10.884218    7.387799    6.291653    8.673670    -10.662251    2.247489    -1.445749    1.325031    -8.516757    0.126724    -5.878736    -0.243129    
7.358995    82.706696    -5.585487    3.558134    2.135176    -0.776766    -2.026121    -13.439101    0.093464    -1.882193    -0.358314    0.326324    0.477235    35.170776    -1.501322    2.950328    -9.480122    -0.813037    20.906872    3.177175    6.856030    -27.992334    1.642717    -10.494779    8.477812    -5.742475    0.187664    -26.704575    -3.435763    -9.783799    -17.932560    0.078249    11.648990    11.453700    2.834502    10.652967    -0.106362    0.484761    -7.883212    5.264264    1.448657    20.892141    -1.983096    7.912234    -3.159852    -2.573057    -9.255975    -8.045725    5.471555    0.393846    -2.139629    -0.334329    -2.157463    0.474242    -10.883857    7.391374    6.289584    8.672480    -10.659768    2.243492    -1.456300    1.319613    -8.502277    0.120000    -5.862603    -0.230183    
7.358989    82.707375    -5.581249    3.554433    2.139655    -0.777557    -2.022902    -13.441373    0.095857    -1.882243    -0.373328    0.328220    0.488411    35.188248    -1.498173    2.945973    -9.518844    -0.807539    20.911369    3.171901    6.854918    -27.988792    1.653579    -10.481265    8.455160    -5.766076    0.173771    -26.623631    -3.460577    -9.805257    -17.929636    0.085387    11.649755    11.458040    2.805852    10.643827    -0.099848    0.489211    -7.877983    5.244963    1.449935    20.891712    -1.975346    7.909892    -3.160237    -2.588840    -9.255172    -7.964600    5.495413    0.380604    -2.209330    -0.018490    -2.011421    0.026204    -10.878997    7.386802    6.274705    8.673052    -10.650957    2.259392    -1.452646    1.315703    -8.503695    0.115104    -5.855094    -0.220769    
7.359716    82.707329    -5.576344    3.551082    2.142319    -0.775125    -2.027589    -13.444805    0.092891    -1.860593    -0.383989    0.325629    0.440187    35.196648    -1.487981    2.991522    -9.542560    -0.795330    20.914171    3.157119    6.857028    -28.006620    1.670391    -10.463151    8.455462    -5.759063    0.165482    -26.599663    -3.454253    -9.808800    -17.946125    0.088279    11.660199    11.463437    2.795710    10.631175    -0.096914    0.491328    -7.874496    5.240585    1.451418    20.889729    -1.974920    7.911709    -3.165264    -2.577154    -9.257751    -7.988483    5.489827    0.389915    -2.190455    -0.031173    -2.042056    0.044187    -10.877610    7.390363    6.287705    8.673320    -10.656708    2.248954    -1.464027    1.223751    -8.525654    0.127289    -5.830299    -0.244067    
7.359641    82.707428    -5.571823    3.551393    2.140708    -0.778573    -2.029120    -13.444581    0.095797    -1.857359    -0.392997    0.328826    0.456649    35.208153    -1.485739    2.968849    -9.575858    -0.794025    20.909286    3.182053    6.858326    -28.002043    1.640503    -10.476971    8.440010    -5.742116    0.167440    -26.519405    -3.438537    -9.834556    -17.943237    0.102016    11.655672    11.458698    2.762897    10.640917    -0.091992    0.516954    -7.890670    5.252028    1.479676    20.893944    -1.977972    7.914661    -3.143327    -2.590850    -9.249031    -7.954710    5.498903    0.371735    -2.239950    -0.024623    -2.029943    0.034900    -10.876056    7.393437    6.282405    8.665960    -10.658336    2.232961    -1.451516    1.319800    -8.490079    0.121859    -5.884304    -0.233810    
7.361784    82.707611    -5.567224    3.544642    2.147878    -0.779448    -2.031673    -13.435107    0.087536    -1.831825    -0.429970    0.320156    0.386676    35.198582    -1.459131    3.025007    -9.558771    -0.767527    20.901310    3.189538    6.895001    -28.018961    1.637093    -10.499092    8.440637    -5.732179    0.190900    -26.449041    -3.424231    -9.887136    -17.956053    0.100723    11.664299    11.460621    2.766527    10.651452    -0.099983    0.539831    -7.898488    5.282641    1.507264    20.890263    -1.971476    7.914939    -3.171427    -2.583471    -9.255856    -8.008851    5.567246    0.414213    -2.127754    0.010644    -2.073815    -0.015090    -10.873749    7.388436    6.280199    8.672236    -10.649818    2.267812    -1.419561    1.305204    -8.516511    0.127662    -5.878770    -0.244929    
7.361362    82.707390    -5.563503    3.544000    2.147534    -0.782881    -2.038964    -13.434828    0.085632    -1.819426    -0.440067    0.318957    0.406810    35.201790    -1.456278    2.991478    -9.568843    -0.768023    20.900061    3.194936    6.892302    -28.009359    1.674855    -10.487306    8.426483    -5.754002    0.200891    -26.370712    -3.442747    -9.934781    -17.954525    0.096772    11.681581    11.448690    2.803770    10.639646    -0.095722    0.532611    -7.903123    5.287138    1.501218    20.887959    -1.971159    7.917489    -3.170898    -2.576739    -9.262362    -7.977388    5.545388    0.409065    -2.175220    -0.309263    -2.213521    0.438840    -10.871040    7.391361    6.284132    8.674773    -10.659529    2.208064    -1.447019    1.312133    -8.451552    0.135105    -5.883036    -0.259223    
7.360481    82.706894    -5.559026    3.543088    2.145494    -0.780366    -2.037067    -13.439471    0.086520    -1.821732    -0.434188    0.319794    0.379832    35.199135    -1.440602    3.026021    -9.585683    -0.748661    20.894018    3.211629    6.902552    -27.988115    1.676781    -10.520214    8.413899    -5.744012    0.232657    -26.336943    -3.434271    -9.951159    -17.958948    0.094271    11.679480    11.455453    2.811392    10.642827    -0.098071    0.528499    -7.910049    5.265942    1.493011    20.889521    -1.972219    7.921768    -3.162928    -2.568853    -9.253277    -8.043095    5.560584    0.401123    -2.111429    -0.299127    -2.187087    0.424387    -10.870210    7.399366    6.282156    8.677948    -10.662571    2.234195    -1.454199    1.317037    -8.489066    0.106141    -5.872693    -0.203622    
7.362113    82.706848    -5.556022    3.543896    2.149872    -0.785565    -2.036013    -13.445251    0.085490    -1.819938    -0.438945    0.318591    0.338412    35.092850    -1.334127    3.026200    -9.451816    -0.649553    20.889452    3.191903    6.898207    -27.966259    1.709533    -10.496557    8.417497    -5.764074    0.240514    -26.353546    -3.452085    -9.957026    -17.969351    0.095933    11.691006    11.456828    2.825276    10.642275    -0.083904    0.509004    -7.909366    5.229648    1.468618    20.903679    -1.973639    7.919957    -3.167682    -2.565050    -9.253113    -8.040412    5.548487    0.398811    -2.105947    -0.316730    -2.202253    0.449404    -10.873481    7.395504    6.294610    8.674729    -10.660283    2.225709    -1.446883    1.309349    -8.471042    0.135534    -5.869153    -0.260002    
7.361850    82.706276    -5.551496    3.543388    2.146615    -0.784666    -2.036443    -13.449177    0.085668    -1.822804    -0.431653    0.319154    0.336645    35.084881    -1.330425    3.036170    -9.456180    -0.643740    20.907825    3.183718    6.898272    -27.969706    1.738784    -10.497301    8.430851    -5.778872    0.251324    -26.387318    -3.466831    -9.947815    -17.966772    0.095446    11.688572    11.464914    2.803825    10.643064    -0.091541    0.508644    -7.906512    5.204971    1.463961    20.920923    -1.969204    7.928735    -3.194077    -2.568037    -9.260763    -8.058243    5.542973    0.408301    -2.069074    -0.305742    -2.206461    0.433824    -10.874531    7.404933    6.303465    8.674890    -10.669162    2.223596    -1.457918    1.321305    -8.488551    0.116754    -5.888038    -0.224025    
7.362889    82.705894    -5.547746    3.546504    2.153122    -0.789699    -2.035874    -13.461714    0.089539    -1.827470    -0.427478    0.323160    0.345506    35.068008    -1.317899    3.021903    -9.447429    -0.632514    20.903933    3.158432    6.886728    -27.948729    1.742154    -10.475523    8.463089    -5.714705    0.284018    -26.507040    -3.401309    -9.916766    -17.966669    0.094667    11.687222    11.472879    2.777591    10.637541    -0.090214    0.506883    -7.892428    5.168430    1.455707    20.924459    -1.972903    7.924622    -3.185856    -2.575471    -9.263718    -7.979360    5.499783    0.379003    -2.152046    -0.322525    -2.164908    0.457521    -10.875813    7.397288    6.280840    8.673779    -10.658381    2.234343    -1.417111    1.309061    -8.472233    0.129461    -5.870172    -0.248353    
7.361180    82.705322    -5.543730    3.545055    2.150076    -0.790290    -2.045118    -13.464170    0.086470    -1.811077    -0.427208    0.321313    0.319457    35.057369    -1.297293    3.034355    -9.432826    -0.613547    20.903723    3.187819    6.892828    -27.955667    1.704600    -10.496148    8.440084    -5.765355    0.259551    -26.409801    -3.451583    -9.948834    -17.978447    0.097958    11.697773    11.476929    2.756937    10.638203    -0.084334    0.507935    -7.898960    5.158326    1.455459    20.930367    -1.971086    7.931316    -3.186097    -2.580653    -9.267173    -7.949929    5.508646    0.373997    -2.191955    -0.342483    -2.163545    0.485827    -10.875484    7.404117    6.290565    8.676668    -10.661695    2.246939    -1.456242    1.321904    -8.484067    0.130779    -5.907632    -0.250996    
7.361034    82.704849    -5.540178    3.544847    2.154441    -0.792585    -2.038888    -13.479415    0.090050    -1.824901    -0.413380    0.324379    0.348938    35.043545    -1.308770    2.998523    -9.427183    -0.628107    20.908035    3.179034    6.891861    -27.937313    1.696685    -10.494515    8.432339    -5.764481    0.249886    -26.414248    -3.453612    -9.931673    -17.966131    0.102450    11.685930    11.463780    2.743120    10.658428    -0.087229    0.511742    -7.912016    5.193741    1.465076    20.918634    -1.973244    7.927583    -3.162752    -2.561254    -9.256679    -8.092189    5.532094    0.398088    -2.058480    -0.007740    -2.086544    0.010975    -10.876090    7.402244    6.298688    8.678709    -10.664159    2.225037    -1.427290    1.311837    -8.474295    0.133330    -5.894907    -0.255853    
7.346165    82.704697    -5.537058    3.555255    2.159875    -0.780602    -2.101380    -13.491648    0.070393    -1.779033    -0.409706    0.312662    0.353064    35.054920    -1.305860    2.986982    -9.448019    -0.626299    20.928772    3.144874    6.884829    -27.951326    1.721498    -10.453225    8.433412    -5.777588    0.227402    -26.406586    -3.464445    -9.937539    -17.962839    0.091152    11.697172    11.456333    2.760321    10.660522    -0.093536    0.515166    -7.921814    5.245696    1.477338    20.909113    -1.956103    7.923743    -3.197934    -2.589801    -9.255480    -8.092376    5.485660    0.367085    -2.043321    -0.009732    -2.030904    0.013794    -10.865035    7.405666    6.293989    8.656912    -10.669591    2.228154    -1.444089    1.309760    -8.489585    0.126412    -5.862655    -0.242482    
